<svg width="73" height="47" viewBox="0 0 73 47" fill="none" xmlns="http://www.w3.org/2000/svg">
<path fill-rule="evenodd" clip-rule="evenodd" d="M10.4001 47L13.3823 32.0775H18.2227L15.2405 47H10.4001ZM24.9962 42.1157H28.0833L27.2741 36.6471L24.9962 42.1157ZM18.2227 47L25.5207 32.0775H30.3012L33.3133 47H28.8176L28.5778 45.247H23.7974L23.0181 47H18.2227ZM37.7791 47L39.4275 35.7631H35.2165L35.9209 32.0025H48.9435L48.2092 35.7631H44.208L42.5595 47H37.7791ZM54.0386 42.1157H57.1257L56.3165 36.6471L54.0386 42.1157ZM47.2501 47L54.5482 32.0775H59.3586L62.3407 47H57.815L57.6052 45.247H52.8248L52.0455 47H47.2501ZM72.9207 15.2372H50.1723C49.3331 19.4173 46.4109 22.8932 40.6564 25.3054C41.3307 27.313 43.5636 29.1709 45.8864 29.1709H58.2496C60.1079 29.1709 61.6214 27.5528 62.2209 26.2942H49.6478C48.9135 26.1594 48.8386 25.5601 49.6178 25.4852H61.9811C63.5546 25.4852 65.0382 24.0768 65.8474 22.6085H51.4911C50.7568 22.5037 50.7568 21.8744 51.4911 21.7695H65.9373C67.4059 21.7695 68.7397 20.0915 69.2792 18.9229H53.3643C52.585 18.818 52.585 18.0838 53.3643 18.0389H69.5789C70.8527 18.0389 72.0815 16.6755 72.9207 15.2372ZM0 15.2372H22.7784C23.6176 19.4173 26.4948 22.8932 32.2643 25.3054C31.6349 27.313 29.3871 29.1709 27.0643 29.1709H14.701C12.7978 29.1709 11.3292 27.5528 10.7298 26.2942H23.2579C24.0372 26.1594 24.0671 25.5601 23.2879 25.4852H10.9696C9.35111 25.4852 7.91248 24.0768 7.07328 22.6085H21.4596C22.1639 22.5037 22.1639 21.8744 21.4596 21.7695H6.95339C5.51476 21.7695 4.18103 20.0915 3.61157 18.9229H19.5115C20.3207 18.818 20.3207 18.0838 19.5115 18.0389H3.32684C2.11299 18.0389 0.88416 16.6755 0 15.2372ZM29.0724 2.66688C29.9116 3.37106 30.8557 4.03028 31.8747 4.41983C32.7589 2.74179 33.9427 1.28849 35.3214 0C33.0436 0.314632 30.9006 1.1986 29.0724 2.66688ZM25.0712 10.9822H30.1214C30.2263 8.86962 30.6758 7.05675 31.53 5.15397C30.3761 4.65955 29.417 4.03028 28.4729 3.22123C26.3749 5.33376 25.206 8.0306 25.0712 10.9822ZM36.0557 6.21772V10.9971H31.0055C31.0355 9.10934 31.4551 7.20657 32.2643 5.45362C33.4632 5.9031 34.752 6.17278 36.0557 6.21772ZM43.8483 2.66688C43.0091 3.37106 42.065 4.03028 41.076 4.41983C40.1618 2.69684 39.0379 1.33344 37.6292 0C39.9221 0.314632 42.065 1.1986 43.8483 2.66688ZM47.8945 10.9822H42.7993C42.7244 8.91457 42.2748 7.0118 41.4656 5.15397C42.5596 4.65955 43.5786 4.00032 44.4777 3.22123C46.6656 5.40867 47.7896 8.10552 47.8945 10.9822ZM36.8949 6.21772V10.9971H41.9601C41.9601 9.0644 41.4656 7.23654 40.6564 5.45362C39.4575 5.9031 38.1687 6.17278 36.8949 6.21772ZM29.0724 20.1514C29.9116 19.4772 30.9006 18.788 31.8747 18.3985C32.7888 20.1215 33.9128 21.5298 35.3214 22.7883C33.0436 22.5037 30.8557 21.6197 29.0724 20.1514ZM25.0712 11.8212H30.1214C30.2263 13.9337 30.6758 15.7466 31.53 17.6793C30.3761 18.1737 29.417 18.803 28.4729 19.5821C26.4049 17.5145 25.206 14.7727 25.0712 11.8212ZM36.0557 16.6006V11.8212H31.0055C31.0355 13.7239 31.4551 15.6417 32.2643 17.3347C33.4632 16.9152 34.752 16.6305 36.0557 16.6006ZM43.8483 20.1514C43.0391 19.4472 42.065 18.818 41.076 18.3985C40.1618 20.1215 39.0379 21.5298 37.6292 22.7883C39.9221 22.5037 42.065 21.6197 43.8483 20.1514ZM47.8945 11.8212H42.7993C42.7244 13.9337 42.3048 15.7915 41.4656 17.6793C42.5596 18.1737 43.5336 18.803 44.4777 19.5821C46.5607 17.5145 47.7896 14.7128 47.8945 11.8212ZM36.8949 16.6006V11.8212H41.9601C41.9601 13.7239 41.4656 15.6117 40.6564 17.3347C39.5025 16.9152 38.1238 16.6305 36.8949 16.6006ZM36.0557 0.494424C34.692 1.61811 33.4632 3.13134 32.6839 4.73446C33.7329 5.07906 34.9018 5.36373 36.0557 5.36373V0.494424ZM36.8949 0.494424C38.2287 1.61811 39.4575 3.08639 40.2667 4.73446C39.1728 5.124 38.0189 5.36373 36.8949 5.36373V0.494424ZM36.0557 22.3239C34.692 21.2302 33.4632 19.7319 32.6839 18.0838C33.7329 17.6943 34.9018 17.4845 36.0557 17.4845V22.3239ZM36.8949 22.3538C38.2287 21.2302 39.4575 19.7169 40.2667 18.0689C39.1728 17.7243 38.0189 17.4696 36.8949 17.4696V22.3538Z" fill="white"/>
</svg>
