<svg width="34" height="21" viewBox="0 0 34 21" fill="none" xmlns="http://www.w3.org/2000/svg">
<path d="M33.0024 18.1262H1.28461V20.4844H33.0024V18.1262Z" fill="#454751"/>
<path d="M16.5402 3.8092L11.4513 1.76296C10.8424 1.51389 11.1644 1.01105 11.6611 0.916495L14.7441 0.0233996L14.7439 0.0218507C14.8508 -0.00641926 14.9632 -0.00727141 15.0705 0.0193728L22.5493 1.48442C20.7629 2.1055 18.3016 3.11973 16.5402 3.8092H16.5402Z" fill="#454751"/>
<path fill-rule="evenodd" clip-rule="evenodd" d="M25.7261 0.263912C20.459 1.65311 15.4454 3.79319 10.4468 5.92699C9.00882 6.54082 7.57197 7.15415 6.18492 7.72705L3.16972 6.34733L3.17071 6.34512C3.01171 6.27237 2.83891 6.26799 2.68528 6.31966L1.42582 6.65067L1.42541 6.6492C1.07246 6.74196 0.861549 7.10329 0.954285 7.45627C0.971661 7.52261 0.999271 7.58583 1.03612 7.64367L3.70005 12.3992C3.84065 12.6501 4.12047 12.7736 4.38863 12.7274L4.6452 12.6382L8.69946 11.581C9.1299 11.4725 9.44892 11.3905 9.85749 11.2722L10.6256 11.0703C17.176 9.34862 23.6834 7.65542 30.2375 5.93442L30.2377 5.93545L30.2621 5.92951L30.2646 5.92882L30.2767 5.92548L30.2801 5.92449L30.2946 5.92009L30.2949 5.92001L30.3116 5.91443C30.6836 5.80957 31.3995 5.53774 32.0055 5.21034C32.8045 4.7786 33.4523 4.19829 33.3392 3.52984C33.3332 3.48251 33.3221 3.43676 33.3067 3.3931C32.9369 2.09094 31.6443 1.13427 30.1379 0.595151C28.7016 0.0811222 27.0349 -0.0640243 25.8232 0.238657C25.7902 0.244571 25.7577 0.253008 25.7261 0.263891V0.263912Z" fill="#676767"/>
<path fill-rule="evenodd" clip-rule="evenodd" d="M31.3892 1.17506C31.0022 0.947148 30.5792 0.753229 30.1377 0.595218C29.3655 0.318844 28.5267 0.149187 27.7278 0.0983887L28.6174 2.20074C29.7135 2.01878 30.6686 1.70573 31.3892 1.17506Z" fill="#454751"/>
<path d="M19.9142 6.38059L18.1744 14.6801C18.1738 14.68 20.658 15.0108 22.1175 14.3055L25.3745 4.73682L19.9142 6.38061V6.38059ZM5.36616 10.9593L4.7173 14.6965C4.71695 14.6964 6.16115 14.8888 7.00966 14.4788L8.54058 10.0036L5.36616 10.9593Z" fill="#454751"/>
<path d="M23.6089 2.98991L24.5946 2.66974C24.6554 2.65002 24.7189 2.68276 24.7365 2.74287L24.9203 3.37004C24.9379 3.43015 24.903 3.49486 24.8423 3.51458L23.8565 3.83475C23.7958 3.85447 23.7323 3.82173 23.7147 3.76162L23.5308 3.13446C23.5132 3.07435 23.5482 3.00963 23.6089 2.98991Z" fill="#454751"/>
<path d="M21.9707 3.59147L22.9565 3.2713C23.0172 3.25158 23.0807 3.28432 23.0983 3.34443L23.2821 3.9716C23.2998 4.03171 23.2648 4.09642 23.2041 4.11615L22.2183 4.43631C22.1576 4.45604 22.0941 4.4233 22.0765 4.36319L21.8927 3.73602C21.875 3.67591 21.91 3.61119 21.9707 3.59147Z" fill="#454751"/>
<path d="M20.2466 4.18058L21.2323 3.86042C21.2931 3.84069 21.3566 3.87343 21.3742 3.93354L21.558 4.56071C21.5756 4.62082 21.5407 4.68554 21.48 4.70526L20.4942 5.02543C20.4335 5.04515 20.37 5.01241 20.3524 4.9523L20.1686 4.32513C20.1509 4.26502 20.1859 4.20031 20.2466 4.18058Z" fill="#454751"/>
<path d="M18.439 4.83122L19.4247 4.51105C19.4854 4.49133 19.549 4.52407 19.5666 4.58418L19.7504 5.21135C19.768 5.27146 19.7331 5.33617 19.6724 5.35589L18.6866 5.67606C18.6259 5.69578 18.5624 5.66304 18.5448 5.60293L18.3609 4.97577C18.3433 4.91566 18.3783 4.85094 18.439 4.83122Z" fill="#454751"/>
<path d="M16.6313 5.48161L17.6171 5.16144C17.6778 5.14172 17.7413 5.17446 17.759 5.23457L17.9428 5.86174C17.9604 5.92185 17.9255 5.98656 17.8647 6.00628L16.879 6.32645C16.8183 6.34617 16.7547 6.31343 16.7371 6.25332L16.5533 5.62616C16.5357 5.56605 16.5706 5.50133 16.6313 5.48161Z" fill="#454751"/>
<path d="M14.8237 6.132L15.8095 5.81183C15.8702 5.79211 15.9337 5.82485 15.9513 5.88496L16.1352 6.51213C16.1528 6.57224 16.1179 6.63695 16.0571 6.65667L15.0713 6.97684C15.0106 6.99656 14.9471 6.96382 14.9295 6.90371L14.7456 6.27655C14.728 6.21644 14.763 6.15172 14.8237 6.132Z" fill="#454751"/>
<path d="M13.0161 6.78239L14.0019 6.46222C14.0626 6.4425 14.1261 6.47524 14.1437 6.53535L14.3276 7.16252C14.3452 7.22263 14.3102 7.28734 14.2495 7.30706L13.2637 7.62723C13.203 7.64696 13.1395 7.61421 13.1219 7.55411L12.938 6.92694C12.9204 6.86683 12.9554 6.80211 13.0161 6.78239Z" fill="#454751"/>
<path d="M11.2085 7.43278L12.1943 7.11261C12.255 7.09289 12.3185 7.12563 12.3361 7.18574L12.5199 7.81291C12.5376 7.87302 12.5026 7.93773 12.4419 7.95745L11.4561 8.27762C11.3954 8.29734 11.3319 8.2646 11.3143 8.2045L11.1304 7.57733C11.1128 7.51722 11.1477 7.4525 11.2085 7.43278Z" fill="#454751"/>
<path d="M25.6077 2.51434L26.7969 2.14303C26.8767 2.11811 26.9616 2.16261 26.9865 2.24243L27.9324 5.27148C27.9573 5.35131 27.9128 5.43622 27.833 5.46115L26.6438 5.83246C26.564 5.85738 26.4791 5.81288 26.4541 5.73305L25.5083 2.70401C25.4834 2.62418 25.5279 2.53927 25.6077 2.51434Z" fill="#454751"/>
<path d="M26.7462 2.13776L25.6454 2.48149C25.6181 2.49006 25.5927 2.50395 25.5707 2.52235C25.5487 2.54075 25.5306 2.5633 25.5173 2.58872C25.504 2.61407 25.4958 2.64179 25.4931 2.67032C25.4905 2.69884 25.4936 2.7276 25.5021 2.75495L26.4203 5.69561C26.4289 5.72296 26.4428 5.74835 26.4612 5.77032C26.4796 5.7923 26.5022 5.81043 26.5276 5.82367C26.5529 5.83703 26.5806 5.84526 26.6092 5.84788C26.6377 5.8505 26.6664 5.84747 26.6938 5.83895L27.7946 5.49522C27.8219 5.48666 27.8473 5.47279 27.8693 5.45439C27.8913 5.43599 27.9094 5.41343 27.9226 5.38801C27.936 5.36267 27.9442 5.33494 27.9468 5.30642C27.9495 5.27789 27.9464 5.24913 27.9379 5.22178L27.0196 2.28113C27.0111 2.25378 26.9972 2.22839 26.9788 2.20641C26.9604 2.18444 26.9378 2.16631 26.9124 2.15306C26.8871 2.1397 26.8594 2.13147 26.8308 2.12885C26.8023 2.12622 26.7735 2.12925 26.7462 2.13776ZM25.6577 2.52087L26.7584 2.17712C26.7806 2.17021 26.804 2.16774 26.8272 2.16987C26.8503 2.172 26.8728 2.17867 26.8934 2.18951C26.914 2.20025 26.9323 2.21496 26.9472 2.23278C26.9621 2.25061 26.9733 2.2712 26.9803 2.29337L27.8985 5.23401C27.9055 5.25621 27.9079 5.27957 27.9058 5.30273C27.9037 5.32589 27.897 5.34841 27.8862 5.36899C27.8754 5.3896 27.8607 5.40788 27.8429 5.42279C27.8251 5.43769 27.8045 5.44893 27.7823 5.45586L26.6815 5.7996C26.6593 5.80652 26.636 5.80899 26.6128 5.80686C26.5897 5.80474 26.5672 5.79807 26.5466 5.78723C26.526 5.77648 26.5077 5.76178 26.4928 5.74395C26.4779 5.72613 26.4667 5.70554 26.4597 5.68336L25.5414 2.74271C25.5345 2.7205 25.532 2.69715 25.5342 2.67399C25.5363 2.65083 25.543 2.62832 25.5538 2.60774C25.5645 2.58714 25.5792 2.56886 25.5971 2.55395C25.6149 2.53905 25.6355 2.5278 25.6577 2.52087Z" fill="#454751"/>
</svg>
