<svg width="16" height="22" viewBox="0 0 16 22" fill="none" xmlns="http://www.w3.org/2000/svg">
<path d="M12.1172 8.07812C13.4578 8.07812 14.5406 7.0125 14.5406 5.68906V2.38906C14.5406 1.06562 13.4578 0 12.1172 0C10.7766 0 9.69375 1.06562 9.69375 2.38906V5.67188C9.69375 6.99531 10.7766 8.07812 12.1172 8.07812ZM10.3125 2.38906C10.3125 1.39219 11.1203 0.601562 12.1344 0.601562C13.1312 0.601562 13.9562 1.40937 13.9562 2.38906V5.67188C13.9562 6.66875 13.1484 7.45938 12.1344 7.45938C11.1375 7.45938 10.3125 6.65156 10.3125 5.67188V2.38906ZM5.87812 5.34531C7.09844 5.34531 8.07812 4.38281 8.07812 3.19688C8.07812 2.01094 7.08125 1.03125 5.87812 1.03125C4.65781 1.03125 3.67812 1.99375 3.67812 3.19688C3.67812 4.4 4.65781 5.34531 5.87812 5.34531ZM3.07656 6.01562L3.64375 5.37969L2.93906 0H0L0.0515627 6.58281L2.69844 18.5453L1.44375 22H3.97031L5.05312 18.3906H7.94062L9.38437 22H11.55L10.1062 18.3906H11.55V16.225H5.05312L3.07656 6.01562ZM13.4406 12.6328H9.45312C9.45312 12.6328 8.59375 8.47344 8.49062 7.63125C8.43906 7.20156 8.14687 5.775 6.4625 5.775C5.41406 5.775 4.33125 6.34219 4.33125 7.73438C4.33125 7.61406 5.70625 15.5031 5.70625 15.5031H12.7187L12.7359 20.5219C12.7359 20.5219 12.9594 21.6391 13.8703 21.6391C14.7812 21.6391 15.1594 20.5219 15.1594 20.5219V14.0422C15.1594 13.5094 14.4031 12.6328 13.4406 12.6328Z" fill="#454751"/>
</svg>
