<svg width="26" height="24" viewBox="0 0 26 24" fill="none" xmlns="http://www.w3.org/2000/svg">
<path d="M1 12L3.66667 9.55556M3.66667 9.55556L13 1L22.3333 9.55556M3.66667 9.55556H22.3333M3.66667 9.55556V21.7778C3.66667 22.1019 3.80714 22.4128 4.05719 22.642C4.30724 22.8712 4.64638 23 5 23H9M22.3333 9.55556L25 12M22.3333 9.55556V21.7778C22.3333 22.1019 22.1929 22.4128 21.9428 22.642C21.6928 22.8712 21.3536 23 21 23H17M9 23C9.35362 23 9.69276 22.8712 9.94281 22.642C10.1929 22.4128 10.3333 22.1019 10.3333 21.7778V16.8889C10.3333 16.5647 10.4738 16.2539 10.7239 16.0246C10.9739 15.7954 11.313 15.6667 11.6667 15.6667H14.3333C14.687 15.6667 15.0261 15.7954 15.2761 16.0246C15.5262 16.2539 15.6667 16.5647 15.6667 16.8889V21.7778C15.6667 22.1019 15.8071 22.4128 16.0572 22.642C16.3072 22.8712 16.6464 23 17 23M9 23H17" stroke="white" stroke-width="2" stroke-linecap="round" stroke-linejoin="round"/>
</svg>
