<svg width="15" height="15" viewBox="0 0 15 15" fill="none" xmlns="http://www.w3.org/2000/svg">
<path d="M13.7557 6.30901L13.7314 6.28089C13.0138 5.44983 12.6224 4.41841 12.6213 3.35519V0.722108C12.6213 0.324492 12.2702 0 11.8399 0H10.6507C10.2204 0 9.87129 0.324492 9.87129 0.722108V3.35531C9.87129 4.41492 9.47552 5.4539 8.75916 6.28101L8.73482 6.30913C7.93106 7.24054 7.49255 8.39614 7.49081 9.58745V14.0022C7.49081 14.3999 7.84195 14.7225 8.27221 14.7225H14.2206C14.4273 14.7224 14.6255 14.6465 14.7717 14.5115C14.9178 14.3764 14.9999 14.1932 15 14.0022V9.58733C14.9981 8.39601 14.5595 7.24043 13.7557 6.30901ZM10.4802 0.722108C10.4802 0.633983 10.5573 0.562734 10.6507 0.562734H11.8399C11.9353 0.562734 12.0124 0.633983 12.0124 0.722108V2.24683H10.4802V0.722108ZM14.3911 14.0022C14.3911 14.0885 14.314 14.1597 14.2206 14.1597H8.27221C8.17685 14.1597 8.09975 14.0885 8.09975 14.0022V13.4321H14.3911V14.0022ZM14.3911 13.057H8.09963V10.3244H9.72926L9.68057 10.0993C9.66028 10.0056 9.65013 9.91182 9.65013 9.81608C9.65013 9.0021 10.3665 8.34011 11.2453 8.34011C12.1241 8.34011 12.8404 9.0021 12.8404 9.81608C12.8404 9.90983 12.8303 10.0055 12.81 10.0993L12.7613 10.3244H14.3909V13.057H14.3911ZM14.3911 9.94932H13.2404C13.2444 9.90432 13.2465 9.8612 13.2465 9.8162C13.2465 8.79596 12.3494 7.96511 11.2454 7.96511C10.1414 7.96511 9.24434 8.79596 9.24434 9.8162C9.24434 9.8612 9.24637 9.90432 9.25043 9.94932H8.09975V9.58733C8.09975 8.52772 8.49553 7.48874 9.21188 6.65976L9.2342 6.63351C10.0379 5.70515 10.4802 4.54242 10.4802 3.35519V2.80945H12.0125V3.35519C12.0143 4.54591 12.4528 5.7009 13.2565 6.63163L13.2808 6.65976C13.9982 7.49167 14.3895 8.52359 14.3909 9.58733V9.94932H14.3911ZM6.90026 7.24112C6.90026 5.80452 6.39897 4.12593 6.11885 3.59144L6.03566 3.43207H0.864598L0.78141 3.59144C0.515489 4.09781 -0.00202301 5.74077 5.94853e-06 7.24112C0.00203491 8.90284 1.3882 10.2738 3.14566 10.4163V13.0064L1.21764 14.0791L1.19126 14.0941C1.00054 14.2272 0.92534 14.4467 1.00054 14.6567C1.07561 14.8649 1.27863 15 1.51805 15H5.38424C5.49851 15.0009 5.61014 14.9682 5.70285 14.9064C5.79557 14.8447 5.86454 14.7572 5.89972 14.6567C5.97479 14.4467 5.89972 14.2272 5.709 14.0941L3.7546 13.0064V10.4163C5.51612 10.2738 6.90026 8.90471 6.90026 7.24112ZM1.25631 3.9948H5.64407C5.86523 4.52929 6.25086 5.82902 6.28738 7.05374H0.610851C0.645343 5.81577 1.02894 4.53117 1.25631 3.9948ZM5.14875 14.4374H1.75354L3.45013 13.494L5.14875 14.4374ZM3.45013 9.86682C1.9544 9.86682 0.72257 8.79034 0.616937 7.42874H6.2832C6.17972 8.79034 4.94789 9.86682 3.45013 9.86682ZM11.2454 10.927C10.6711 10.927 10.175 10.5497 10.0658 10.0298C10.0507 9.95936 10.043 9.88769 10.0429 9.81585C10.0429 9.2026 10.5823 8.70362 11.2454 8.70362C11.9085 8.70362 12.4478 9.2026 12.4478 9.81585C12.4478 9.88792 12.44 9.96022 12.4246 10.031C12.3157 10.5497 11.8196 10.927 11.2454 10.927ZM11.2454 9.07862C10.8061 9.07862 10.4488 9.40932 10.4488 9.81585C10.4488 9.86272 10.454 9.9103 10.464 9.95753C10.4995 10.1249 10.5969 10.2758 10.7394 10.3842C10.8819 10.4926 11.0608 10.5519 11.2454 10.5519C11.6257 10.5519 11.9543 10.3023 12.0264 9.95835C12.0367 9.91053 12.0419 9.86307 12.0419 9.81573C12.0419 9.40932 11.6845 9.07862 11.2454 9.07862ZM13.9845 12.4325H8.50504V12.0574H13.9846V12.4325H13.9845ZM13.9845 11.6824H8.50504V11.3073H13.9846V11.6824H13.9845Z" fill="#252733"/>
</svg>
