<svg width="16" height="18" viewBox="0 0 16 18" fill="none" xmlns="http://www.w3.org/2000/svg">
<path d="M7.87012 4.27734V12.6742" stroke="#252733" stroke-miterlimit="10" stroke-linecap="round" stroke-linejoin="round"/>
<path d="M7.84156 13.8657C8.15775 13.8657 8.41407 13.6094 8.41407 13.2932C8.41407 12.977 8.15775 12.7207 7.84156 12.7207C7.52537 12.7207 7.26904 12.977 7.26904 13.2932C7.26904 13.6094 7.52537 13.8657 7.84156 13.8657Z" fill="#EFEFEF" stroke="#252733" stroke-miterlimit="10" stroke-linecap="round" stroke-linejoin="round"/>
<path d="M5.29395 7.23601V9.84802C5.29395 10.0271 5.43822 10.194 5.61723 10.194H7.87027M10.7328 6.47266V9.08829C10.7328 9.26739 10.626 9.43065 10.447 9.43065H8.0611" stroke="#252733" stroke-miterlimit="10" stroke-linecap="round" stroke-linejoin="round"/>
<path d="M1 5.48833C1 5.17345 1.22299 4.78681 1.49561 4.62918L7.56542 1.11822C7.83793 0.960592 8.28402 0.960592 8.55663 1.11822L14.6264 4.62918C14.899 4.78681 15.1221 5.17345 15.1221 5.48833V12.5117C15.1221 12.8266 14.8991 13.2132 14.6264 13.3708L8.55663 16.8818C8.28412 17.0394 7.83803 17.0394 7.56542 16.8818L1.49561 13.3708C1.22309 13.2132 1 12.8266 1 12.5117V5.48833V5.48833Z" stroke="#252733" stroke-miterlimit="10" stroke-linecap="round" stroke-linejoin="round"/>
<path d="M10.3511 5.70898H11.2098V6.56776H10.3511V5.70898Z" stroke="#F9B618" stroke-miterlimit="10" stroke-linecap="round" stroke-linejoin="round"/>
<path d="M4.91553 7.42552L5.26829 6.81445L5.62096 7.42552H4.91553Z" fill="#EFEFEF" stroke="#53AEE1" stroke-miterlimit="10" stroke-linecap="round" stroke-linejoin="round"/>
<path d="M7.14941 4.92159L7.8684 4.13477L8.57393 4.92159" stroke="#EE5325" stroke-miterlimit="10" stroke-linecap="round" stroke-linejoin="round"/>
</svg>
