<svg width="16" height="15" viewBox="0 0 16 15" fill="none" xmlns="http://www.w3.org/2000/svg">
<path d="M3.55992 14.0584H1.06178C0.978961 14.0584 0.899535 14.0255 0.840973 13.9669C0.782411 13.9083 0.749512 13.8288 0.749512 13.7459V9.37108C0.749512 9.28821 0.782411 9.20872 0.840973 9.15012C0.899535 9.09152 0.978961 9.05859 1.06178 9.05859H3.55992C3.64274 9.05859 3.72217 9.09152 3.78073 9.15012C3.83929 9.20872 3.87219 9.28821 3.87219 9.37108V13.7459C3.87219 13.8288 3.83929 13.9083 3.78073 13.9669C3.72217 14.0255 3.64274 14.0584 3.55992 14.0584ZM1.37405 13.4334H3.24766V9.68357H1.37405V13.4334Z" fill="white"/>
<path d="M9.18079 14.9971H9.11209L3.49121 13.7471L3.62861 13.1221L9.14019 14.3721L15.1139 11.3659V11.0097L11.12 11.8722L10.9888 11.2472L15.3606 10.3097C15.4067 10.2998 15.4545 10.3005 15.5003 10.3116C15.5462 10.3228 15.5889 10.3443 15.6252 10.3743C15.6616 10.4044 15.6907 10.4423 15.7103 10.4853C15.7299 10.5282 15.7395 10.575 15.7385 10.6222V11.5597C15.7383 11.6174 15.7222 11.6739 15.6918 11.723C15.6615 11.7721 15.6182 11.8118 15.5667 11.8378L9.32131 14.9627C9.2778 14.985 9.22967 14.9968 9.18079 14.9971Z" fill="white"/>
<path d="M8.24413 12.8085C8.21623 12.8133 8.18772 12.8133 8.15982 12.8085L5.97392 12.1835L6.14254 11.5585L8.26911 12.1835L10.7423 11.9023V11.246H8.5564C8.50752 11.2457 8.45939 11.234 8.41588 11.2117L5.98329 9.99607H3.56006V9.37109H6.05823C6.10711 9.37139 6.15525 9.38316 6.19875 9.40547L8.63135 10.6211H11.0546C11.1374 10.6211 11.2168 10.654 11.2754 10.7126C11.3339 10.7712 11.3668 10.8507 11.3668 10.9335V12.1835C11.3673 12.2608 11.3392 12.3354 11.2878 12.3932C11.2365 12.4509 11.1657 12.4875 11.0889 12.496L8.27848 12.8085H8.24413Z" fill="white"/>
<path d="M2.62351 12.1836H1.99854V12.8086H2.62351V12.1836Z" fill="white"/>
<path d="M9.80524 8.12286C9.47396 8.12286 9.15625 7.99117 8.922 7.75676C8.68775 7.52235 8.55615 7.20442 8.55615 6.87292H9.1807C9.1807 6.99652 9.21732 7.11736 9.28595 7.22013C9.35458 7.32291 9.45211 7.40301 9.56624 7.45032C9.68036 7.49762 9.80593 7.51 9.92708 7.48588C10.0482 7.46177 10.1595 7.40224 10.2469 7.31484C10.3342 7.22744 10.3937 7.11608 10.4178 6.99484C10.4419 6.87361 10.4295 6.74795 10.3822 6.63375C10.335 6.51955 10.2549 6.42194 10.1522 6.35327C10.0495 6.2846 9.92876 6.24794 9.80524 6.24794C9.55819 6.24794 9.31669 6.17463 9.11128 6.03729C8.90587 5.89994 8.74577 5.70473 8.65123 5.47633C8.55669 5.24793 8.53196 4.99661 8.58015 4.75414C8.62835 4.51168 8.74731 4.28896 8.922 4.11415C9.09669 3.93934 9.31925 3.82029 9.56155 3.77206C9.80385 3.72384 10.055 3.74859 10.2832 3.84319C10.5115 3.9378 10.7066 4.09801 10.8438 4.30356C10.9811 4.50911 11.0543 4.75078 11.0543 4.998H10.4298C10.4298 4.87439 10.3932 4.75355 10.3245 4.65078C10.2559 4.548 10.1584 4.4679 10.0442 4.42059C9.93012 4.37329 9.80454 4.36092 9.6834 4.38503C9.56225 4.40914 9.45096 4.46867 9.36362 4.55607C9.27628 4.64348 9.21679 4.75484 9.1927 4.87607C9.1686 4.9973 9.18097 5.12296 9.22824 5.23716C9.27551 5.35136 9.35555 5.44897 9.45826 5.51764C9.56097 5.58631 9.68171 5.62297 9.80524 5.62297C10.1365 5.62297 10.4542 5.75466 10.6885 5.98907C10.9227 6.22348 11.0543 6.54141 11.0543 6.87292C11.0543 7.20442 10.9227 7.52235 10.6885 7.75676C10.4542 7.99117 10.1365 8.12286 9.80524 8.12286Z" fill="white"/>
<path d="M10.1181 7.80859H9.49316V8.74606H10.1181V7.80859Z" fill="white"/>
<path d="M10.1181 3.12305H9.49316V4.06051H10.1181V3.12305Z" fill="white"/>
<path d="M9.80536 9.68524C9.06422 9.68524 8.33973 9.46532 7.7235 9.05328C7.10726 8.64124 6.62697 8.05559 6.34335 7.3704C6.05973 6.6852 5.98552 5.93124 6.13011 5.20384C6.2747 4.47644 6.63159 3.80828 7.15565 3.28385C7.67971 2.75943 8.34741 2.40229 9.07431 2.2576C9.8012 2.11291 10.5546 2.18717 11.2394 2.47099C11.9241 2.75481 12.5093 3.23543 12.9211 3.85209C13.3328 4.46875 13.5526 5.19375 13.5526 5.9354C13.5526 6.92992 13.1578 7.8837 12.4551 8.58694C11.7523 9.29017 10.7992 9.68524 9.80536 9.68524ZM9.80536 2.81052C9.18775 2.81052 8.584 2.99379 8.07047 3.33716C7.55695 3.68052 7.1567 4.16856 6.92035 4.73956C6.684 5.31055 6.62216 5.93886 6.74265 6.54503C6.86314 7.15119 7.16055 7.70799 7.59727 8.14501C8.03399 8.58203 8.5904 8.87965 9.19615 9.00022C9.8019 9.1208 10.4298 9.05892 11.0004 8.8224C11.571 8.58589 12.0587 8.18536 12.4018 7.67148C12.7449 7.1576 12.9281 6.55344 12.9281 5.9354C12.9281 5.10663 12.5991 4.3118 12.0134 3.72578C11.4278 3.13975 10.6336 2.81052 9.80536 2.81052Z" fill="white"/>
<path d="M15.4261 5.62305H13.2402V6.24805H15.4261V5.62305Z" fill="white"/>
<path d="M6.37045 5.62305H4.18457V6.24805H6.37045V5.62305Z" fill="white"/>
<path d="M10.1181 9.37109H9.49316V10.621H10.1181V9.37109Z" fill="white"/>
<path d="M10.1181 0.310547H9.49316V2.49797H10.1181V0.310547Z" fill="white"/>
<path d="M13.5589 1.73787L12.0127 3.28516L12.4545 3.72724L14.0007 2.17995L13.5589 1.73787Z" fill="white"/>
<path d="M7.15755 8.14132L5.83887 9.46094L6.28064 9.90302L7.59931 8.5834L7.15755 8.14132Z" fill="white"/>
<path d="M13.7806 10.225C13.7395 10.2252 13.6987 10.2173 13.6607 10.2018C13.6226 10.1862 13.588 10.1633 13.5588 10.1343L11.9975 8.58753L12.4409 8.1438L13.7587 9.4625C14.4173 8.71992 14.8547 7.80751 15.0214 6.82878C15.1881 5.85004 15.0774 4.84414 14.7017 3.92519C14.3261 3.00624 13.7007 2.21101 12.8964 1.62971C12.0921 1.04841 11.141 0.7043 10.1512 0.636421C9.16137 0.568541 8.17233 0.779605 7.29629 1.24567C6.42024 1.71174 5.69224 2.41415 5.19487 3.27324C4.69751 4.13233 4.45068 5.1137 4.48238 6.10605C4.51409 7.09839 4.82306 8.06198 5.37425 8.88752L4.87149 9.23438C4.24745 8.29918 3.90164 7.20586 3.87431 6.08165C3.84699 4.95745 4.13927 3.8486 4.71714 2.88414C5.295 1.91968 6.1347 1.13928 7.1385 0.633754C8.1423 0.128228 9.26893 -0.0816329 10.3873 0.0285951C11.5056 0.138823 12.5697 0.564606 13.4556 1.25639C14.3416 1.94818 15.013 2.87752 15.3917 3.93627C15.7704 4.99502 15.8409 6.13962 15.5949 7.23689C15.349 8.33415 14.7967 9.33895 14.0023 10.1343C13.9424 10.1914 13.8632 10.2238 13.7806 10.225Z" fill="white"/>
<path d="M6.05456 1.73565L5.61279 2.17773L7.15899 3.72502L7.60075 3.28294L6.05456 1.73565Z" fill="white"/>
</svg>
