<svg width="19" height="16" viewBox="0 0 19 16" fill="none" xmlns="http://www.w3.org/2000/svg">
<path d="M9.44301 1.36524C11.2761 1.36524 12.9335 2.10797 14.1373 3.30806C15.3374 4.50815 16.0764 6.16925 16.0764 7.99866C16.0788 8.87045 15.9089 9.73412 15.5764 10.54C15.2439 11.3459 14.7554 12.0781 14.1389 12.6946C13.5225 13.311 12.7903 13.7996 11.9844 14.1321C11.1785 14.4646 10.3148 14.6345 9.44301 14.6321C8.57153 14.6345 7.70816 14.4647 6.9025 14.1324C6.09685 13.8001 5.36479 13.3119 4.74839 12.6959C4.13198 12.0798 3.64339 11.348 3.31066 10.5425C2.97794 9.73707 2.80766 8.8738 2.80959 8.00232C2.80959 6.17291 3.55232 4.51181 4.75241 3.31172C5.36749 2.69428 6.09852 2.20447 6.90348 1.87043C7.70845 1.53639 8.57149 1.3647 9.44301 1.36524ZM13.5848 3.86054C12.5237 2.79949 11.0602 2.14456 9.44301 2.14456C7.82582 2.14456 6.36229 2.80315 5.3049 3.86054C4.75896 4.40293 4.3257 5.04795 4.03004 5.75845C3.73439 6.46896 3.58218 7.23092 3.58218 8.00049C3.58218 8.77005 3.73439 9.53202 4.03004 10.2425C4.3257 10.953 4.75896 11.598 5.3049 12.1404C6.36595 13.2015 7.82947 13.8528 9.44301 13.8528C10.2125 13.8552 10.9748 13.7054 11.6861 13.4121C12.3975 13.1187 13.0438 12.6876 13.5879 12.1435C14.132 11.5994 14.5631 10.9531 14.8564 10.2418C15.1497 9.53043 15.2995 8.76811 15.2971 7.99866C15.2971 6.38146 14.6422 4.91794 13.5848 3.86054Z" fill="#252733"/>
<path d="M9.44326 3.44535C10.0418 3.44293 10.635 3.55899 11.1885 3.78682C11.742 4.01466 12.245 4.34977 12.6684 4.77286C13.0918 5.19594 13.4273 5.69863 13.6556 6.25197C13.8839 6.8053 14.0004 7.39834 13.9985 7.99691C14.0009 8.59579 13.8847 9.18922 13.6567 9.74297C13.4286 10.2967 13.0932 10.7999 12.6697 11.2233C12.2462 11.6468 11.7431 11.9822 11.1893 12.2103C10.6356 12.4384 10.0421 12.5545 9.44326 12.5521C8.845 12.5536 8.25235 12.4367 7.69944 12.2082C7.14653 11.9797 6.64428 11.6441 6.22158 11.2207C5.79888 10.7973 5.4641 10.2945 5.23649 9.74127C5.00888 9.188 4.89295 8.59517 4.89536 7.99691C4.89391 7.39926 5.01056 6.80722 5.2386 6.25479C5.46664 5.70236 5.80158 5.20043 6.22418 4.77783C6.64678 4.35523 7.14871 4.02029 7.70114 3.79225C8.25357 3.56421 8.84562 3.44756 9.44326 3.44901V3.44535ZM12.1142 5.32964C11.7646 4.97752 11.3488 4.69806 10.8907 4.50735C10.4326 4.31665 9.94129 4.21846 9.44509 4.21846C8.94889 4.21846 8.4576 4.31665 7.99951 4.50735C7.54142 4.69806 7.1256 4.97752 6.77599 5.32964C6.42442 5.67918 6.14543 6.09478 5.95505 6.55253C5.76467 7.01028 5.66666 7.50115 5.66666 7.99691C5.66666 8.49267 5.76467 8.98354 5.95505 9.44129C6.14543 9.89904 6.42442 10.3146 6.77599 10.6642C7.12553 11.0157 7.54113 11.2947 7.99888 11.4851C8.45663 11.6755 8.9475 11.7735 9.44326 11.7735C9.93902 11.7735 10.4299 11.6755 10.8876 11.4851C11.3454 11.2947 11.761 11.0157 12.1105 10.6642C12.4621 10.3146 12.7411 9.89904 12.9315 9.44129C13.1219 8.98354 13.2199 8.49267 13.2199 7.99691C13.2199 7.50115 13.1219 7.01028 12.9315 6.55253C12.7411 6.09478 12.4621 5.67918 12.1105 5.32964H12.1142ZM1.99026 4.68203C1.98087 4.5852 1.93576 4.49533 1.86372 4.42995C1.79169 4.36456 1.69789 4.32834 1.6006 4.32834C1.50332 4.32834 1.40951 4.36456 1.33748 4.42995C1.26544 4.49533 1.22033 4.5852 1.21094 4.68203V9.3653C1.22033 9.46213 1.26544 9.552 1.33748 9.61738C1.40951 9.68277 1.50332 9.71899 1.6006 9.71899C1.69789 9.71899 1.79169 9.68277 1.86372 9.61738C1.93576 9.552 1.98087 9.46213 1.99026 9.3653V4.68203Z" fill="#252733"/>
<path d="M1.60256 0C2.10382 0 2.5319 0.39881 2.80997 1.04642C3.05145 1.59524 3.20146 2.3453 3.20146 3.16121C3.20146 4.99062 2.55019 4.9833 1.71964 4.97598H1.48182C0.651268 4.9833 0 4.99062 0 3.16121C0 2.3453 0.146352 1.59524 0.387834 1.04642C0.669562 0.39881 1.09764 0 1.5989 0H1.60256ZM2.10016 1.35376C1.94283 0.998855 1.76355 0.779327 1.5989 0.779327C1.43425 0.779327 1.25863 0.998855 1.1013 1.35742C0.875883 1.93151 0.76645 2.54458 0.779326 3.16121C0.779326 4.20763 1.08667 4.20397 1.4745 4.20031L1.5989 4.19665H1.7233C2.11479 4.20397 2.41847 4.20763 2.41847 3.16121C2.41847 2.44774 2.29773 1.80745 2.10016 1.35742V1.35376ZM1.60256 9.21288C1.74444 9.2124 1.88501 9.23999 2.01618 9.29406C2.14735 9.34813 2.26653 9.42762 2.36685 9.52794C2.46717 9.62826 2.54666 9.74744 2.60073 9.87861C2.6548 10.0098 2.68239 10.1504 2.68191 10.2922V14.9206C2.68239 15.0628 2.65469 15.2037 2.60039 15.3351C2.54609 15.4665 2.46628 15.5859 2.36556 15.6862C2.26485 15.7866 2.14524 15.866 2.01364 15.9199C1.88205 15.9737 1.74108 16.0009 1.5989 16C1.45702 16.0005 1.31645 15.9729 1.18528 15.9188C1.05411 15.8647 0.93493 15.7852 0.834607 15.6849C0.734284 15.5846 0.654798 15.4654 0.600727 15.3342C0.546656 15.2031 0.519067 15.0625 0.519551 14.9206V10.2922C0.519067 10.1504 0.546656 10.0098 0.600727 9.87861C0.654798 9.74744 0.734284 9.62826 0.834607 9.52794C0.93493 9.42762 1.05411 9.34813 1.18528 9.29406C1.31645 9.23999 1.45702 9.2124 1.5989 9.21288H1.60256ZM1.60256 9.99221C1.56315 9.99219 1.52413 9.99994 1.48772 10.015C1.45131 10.0301 1.41822 10.0522 1.39035 10.08C1.36249 10.1079 1.3404 10.141 1.32533 10.1774C1.31027 10.2138 1.30252 10.2528 1.30254 10.2922V14.9206C1.30254 15.0002 1.33415 15.0765 1.39041 15.1328C1.44668 15.189 1.52299 15.2206 1.60256 15.2206C1.68213 15.2206 1.75844 15.189 1.81471 15.1328C1.87097 15.0765 1.90258 15.0002 1.90258 14.9206V10.2922C1.90212 10.2526 1.8938 10.2134 1.8781 10.177C1.8624 10.1405 1.83963 10.1076 1.81111 10.08C1.78324 10.0522 1.75015 10.0301 1.71374 10.015C1.67733 9.99994 1.63831 9.99219 1.5989 9.99221H1.60256ZM17.7416 4.68328C17.7322 4.58645 17.6871 4.49658 17.615 4.43119C17.543 4.36581 17.4492 4.32959 17.3519 4.32959C17.2546 4.32959 17.1608 4.36581 17.0888 4.43119C17.0167 4.49658 16.9716 4.58645 16.9622 4.68328V9.36655C16.9716 9.46338 17.0167 9.55325 17.0888 9.61863C17.1608 9.68402 17.2546 9.72024 17.3519 9.72024C17.4492 9.72024 17.543 9.68402 17.615 9.61863C17.6871 9.55325 17.7322 9.46338 17.7416 9.36655V4.68328Z" fill="#252733"/>
<path d="M18.6597 1.29129C18.6235 1.19728 18.5521 1.12106 18.4606 1.07877C18.3692 1.03649 18.2648 1.03146 18.1697 1.06474C18.0746 1.09803 17.9962 1.16702 17.9511 1.25711C17.906 1.3472 17.8977 1.45131 17.928 1.54741C18.0011 1.76694 18.0634 2.01939 18.1073 2.29381C18.1475 2.56456 18.1695 2.85726 18.1695 3.16094C18.1695 4.20736 17.8658 4.2037 17.4743 4.20005L17.3499 4.19639H17.2255C16.8376 4.20371 16.5303 4.20736 16.5303 3.16094C16.5303 2.8719 16.5523 2.59749 16.5888 2.34503C16.6254 2.08525 16.6803 1.84377 16.7498 1.6279C16.7819 1.52989 16.7736 1.42318 16.727 1.33123C16.6803 1.23929 16.599 1.16964 16.501 1.13762C16.403 1.1056 16.2963 1.11382 16.2044 1.16048C16.1124 1.20714 16.0428 1.28841 16.0108 1.38642C15.9266 1.64254 15.8644 1.92792 15.8168 2.23526C15.7729 2.52797 15.751 2.84263 15.751 3.16094C15.751 4.99035 16.4022 4.98303 17.2328 4.97571H17.4706C18.3012 4.98303 18.9524 4.99035 18.9524 3.16094C18.9529 2.83271 18.9285 2.50491 18.8793 2.18038C18.8336 1.87789 18.7601 1.58026 18.6597 1.29129ZM17.3499 9.21262C17.4921 9.21165 17.633 9.23888 17.7646 9.29274C17.8962 9.34659 18.0158 9.426 18.1165 9.52637C18.2173 9.62674 18.2971 9.74609 18.3514 9.8775C18.4057 10.0089 18.4334 10.1498 18.4329 10.292V14.9204C18.4334 15.0626 18.4057 15.2034 18.3514 15.3348C18.2971 15.4662 18.2173 15.5856 18.1165 15.686C18.0158 15.7863 17.8962 15.8657 17.7646 15.9196C17.633 15.9735 17.4921 16.0007 17.3499 15.9997C17.208 16.0002 17.0674 15.9726 16.9363 15.9185C16.8051 15.8645 16.6859 15.785 16.5856 15.6847C16.4853 15.5843 16.4058 15.4652 16.3517 15.334C16.2976 15.2028 16.27 15.0622 16.2705 14.9204V10.292C16.27 10.1501 16.2976 10.0095 16.3517 9.87835C16.4058 9.74718 16.4853 9.628 16.5856 9.52767C16.6859 9.42735 16.8051 9.34787 16.9363 9.29379C17.0674 9.23972 17.208 9.21213 17.3499 9.21262ZM17.3499 9.99195C17.2716 9.99287 17.1967 10.0244 17.1413 10.0798C17.1135 10.1076 17.0914 10.1407 17.0763 10.1771C17.0612 10.2135 17.0535 10.2526 17.0535 10.292V14.9204C17.0535 14.9999 17.0851 15.0762 17.1414 15.1325C17.1977 15.1888 17.274 15.2204 17.3535 15.2204C17.4331 15.2204 17.5094 15.1888 17.5657 15.1325C17.622 15.0762 17.6536 14.9999 17.6536 14.9204V10.292C17.6531 10.2523 17.6448 10.2131 17.6291 10.1767C17.6134 10.1403 17.5906 10.1073 17.5621 10.0798C17.5342 10.0519 17.5011 10.0298 17.4647 10.0147C17.4283 9.99967 17.3893 9.99193 17.3499 9.99195Z" fill="#252733"/>
<path d="M17.7412 0.974784C17.7318 0.877953 17.6867 0.788088 17.6147 0.722702C17.5427 0.657316 17.4489 0.621094 17.3516 0.621094C17.2543 0.621094 17.1605 0.657316 17.0885 0.722702C17.0164 0.788088 16.9713 0.877953 16.9619 0.974784V4.48724C16.9713 4.58407 17.0164 4.67394 17.0885 4.73932C17.1605 4.80471 17.2543 4.84093 17.3516 4.84093C17.4489 4.84093 17.5427 4.80471 17.6147 4.73932C17.6867 4.67394 17.7318 4.58407 17.7412 4.48724V0.974784Z" fill="#252733"/>
</svg>
