<svg width="16" height="15" viewBox="0 0 16 15" fill="none" xmlns="http://www.w3.org/2000/svg">
<path d="M14.5616 8.53517C13.4693 9.01557 11.9391 8.98578 10.2794 8.95347C9.88564 8.94581 9.48386 8.93797 8.98907 8.93797C6.75916 8.93797 4.73668 8.77828 3.26948 8.5201C1.65852 8.23663 0.662109 7.77855 0.662109 7.21311C0.662109 6.64766 1.65852 6.1896 3.26949 5.90613C4.73671 5.64795 6.75915 5.48825 8.98909 5.48825C9.47328 5.48825 9.84077 5.48249 10.2016 5.47685C11.8936 5.45038 13.4527 5.42597 14.5718 5.89127C14.9734 6.05823 15.2664 6.26276 15.4561 6.48679C15.6438 6.70846 15.7339 6.95028 15.7317 7.19827C15.7295 7.44344 15.6367 7.68194 15.4583 7.90068C15.2624 8.14105 14.9603 8.3598 14.5616 8.53516L14.5616 8.53517ZM10.2893 8.32598C11.8764 8.35688 13.3397 8.38538 14.3083 7.95937C14.6154 7.82428 14.8383 7.66789 14.9715 7.50451C15.0585 7.39772 15.1038 7.29204 15.1047 7.19335C15.1055 7.09745 15.0636 6.99561 14.9766 6.89282C14.8498 6.74306 14.6367 6.59916 14.3308 6.47201C13.3291 6.05555 11.834 6.07895 10.2114 6.10434C9.77263 6.1112 9.32534 6.11821 8.98909 6.11821C6.79397 6.11821 4.81029 6.27414 3.3777 6.52623C2.08884 6.75302 1.29164 6.99991 1.29164 7.21311C1.29164 7.42632 2.08883 7.67321 3.37769 7.9C4.81029 8.15209 6.79397 8.30802 8.98908 8.30802C9.36704 8.30802 9.83285 8.3171 10.2893 8.32598L10.2893 8.32598Z" fill="white"/>
<path d="M10.0108 6.00628L6.86287 1.25828L6.47497 0.80076L6.4467 0.760152C6.41139 0.701885 6.33142 0.668334 6.226 0.648931C6.08683 0.62332 5.9103 0.625192 5.72146 0.636132C5.7277 0.707465 5.76747 0.815454 5.841 0.960306L5.85207 0.98615C6.25572 1.99827 6.59428 2.91487 6.85784 3.72136C7.12487 4.53854 7.31944 5.25524 7.43196 5.85819L6.81475 5.97138C6.70847 5.40185 6.52047 4.71196 6.26028 3.91577C5.99827 3.11396 5.66737 2.21652 5.27667 1.23601C5.13929 0.96342 5.07943 0.73341 5.09663 0.5458C5.12185 0.270265 5.27355 0.0961725 5.5508 0.0228646L5.60981 0.0130178C5.86594 -0.0042111 6.1156 -0.00986104 6.33911 0.0312931C6.60193 0.0796667 6.82094 0.189911 6.96445 0.40647L7.35409 0.866071L7.37623 0.8956L10.5345 5.65931L10.0108 6.00629L10.0108 6.00628Z" fill="white"/>
<path d="M10.5345 8.89775L7.37622 13.6615L7.35409 13.691L6.96445 14.1506C6.82094 14.3672 6.60193 14.4774 6.33911 14.5258C6.1156 14.5669 5.86594 14.5613 5.60981 14.544L5.5508 14.5342C5.27355 14.4609 5.12185 14.2868 5.09663 14.0113C5.07943 13.8237 5.13929 13.5936 5.27667 13.3211C5.66737 12.3405 5.99826 11.4431 6.26028 10.6413C6.52047 9.84511 6.70847 9.15522 6.81475 8.58569L7.43195 8.69887C7.31944 9.30183 7.12487 10.0185 6.85784 10.8357C6.59428 11.6422 6.25572 12.5588 5.85207 13.5709L5.841 13.5968C5.76747 13.7416 5.72769 13.8496 5.72146 13.9209C5.9103 13.9319 6.08684 13.9337 6.226 13.9081C6.33141 13.8887 6.41139 13.8552 6.44669 13.7969L6.47497 13.7563L6.86286 13.2988L10.0108 8.55078L10.5345 8.89776L10.5345 8.89775Z" fill="white"/>
<path d="M3.02961 6.31361C2.77852 6.05442 2.40976 5.68285 2.01722 5.40164C1.81562 5.25721 1.61108 5.13764 1.42316 5.07669C1.4972 5.18482 1.58607 5.30626 1.67579 5.42889C1.8962 5.73012 2.12129 6.03773 2.20973 6.26683L1.6245 6.49323C1.56685 6.34386 1.36595 6.06931 1.16924 5.80047C0.978379 5.53961 0.791006 5.28355 0.698579 5.08827C0.564622 4.80529 0.581478 4.58363 0.842922 4.45971L0.899475 4.44003C1.38187 4.31614 1.90665 4.54814 2.3836 4.88981C2.81301 5.19743 3.20982 5.59709 3.47961 5.87561L3.02961 6.31361L3.02961 6.31361Z" fill="white"/>
<path d="M3.47961 8.42035C3.20982 8.69887 2.81301 9.09853 2.3836 9.40614C1.90664 9.74782 1.38185 9.97981 0.899461 9.85594L0.842909 9.83626C0.581463 9.71228 0.564629 9.49062 0.698588 9.20766C0.791038 9.01236 0.978401 8.7563 1.16924 8.49549C1.36594 8.22665 1.56684 7.9521 1.62449 7.80273L2.20972 8.02913C2.12128 8.25824 1.8962 8.56584 1.67579 8.86707C1.58607 8.98968 1.4972 9.11114 1.42317 9.21927C1.61109 9.15831 1.81561 9.03875 2.01721 8.89432C2.40976 8.61311 2.77851 8.24154 3.02961 7.98235L3.47961 8.42036L3.47961 8.42035Z" fill="white"/>
<path d="M13.776 5.67969C14.2214 6.68657 14.2128 7.69347 13.776 8.70035L13.2002 8.45182C13.5644 7.61228 13.5716 6.7727 13.2002 5.93315L13.776 5.67969V5.67969Z" fill="white"/>
</svg>
