<svg width="17" height="14" viewBox="0 0 17 14" fill="none" xmlns="http://www.w3.org/2000/svg">
<path d="M10.5406 1.73222L3.31708 1.00783C2.95805 0.971802 2.59724 1.06102 2.31401 1.25587C2.03078 1.45072 1.84834 1.73523 1.80682 2.04681L1.54688 4" stroke="white" stroke-width="0.5" stroke-miterlimit="2" stroke-linecap="round" stroke-linejoin="round"/>
<path fill-rule="evenodd" clip-rule="evenodd" d="M3.08222 3.41242L3.18564 2.56236C3.19465 2.48792 3.21899 2.4159 3.25726 2.35041C3.29554 2.28493 3.347 2.22725 3.40871 2.18069C3.47042 2.13413 3.54116 2.09959 3.61691 2.07904C3.69265 2.0585 3.7719 2.05235 3.85014 2.06095L4.80596 2.16606L3.08222 3.41242ZM15.3514 3.01917C15.2947 2.69955 15.1069 2.41442 14.8294 2.22648C14.5518 2.03854 14.2071 1.96317 13.8711 2.01695L1.61863 3.98014C1.28267 4.03406 0.982968 4.2127 0.785422 4.47679C0.587875 4.74088 0.508653 5.0688 0.565175 5.38844L1.73232 11.9808C1.76035 12.1391 1.82086 12.2905 1.91042 12.4266C1.99998 12.5626 2.11683 12.6805 2.25428 12.7736C2.39174 12.8666 2.54712 12.933 2.71155 12.969C2.87599 13.0049 3.04625 13.0097 3.21261 12.983L15.4651 11.0198C15.801 10.9658 16.1006 10.7871 16.2981 10.523C16.4956 10.259 16.5749 9.93114 16.5185 9.61152L15.3514 3.01917Z" stroke="white" stroke-width="0.5" stroke-miterlimit="2" stroke-linecap="round" stroke-linejoin="round"/>
<path d="M8.8557 9.57509L8.76579 8.9823M4.92033 11.8377L4.10417 11.991C4.02927 12.0051 3.95261 12.0026 3.87857 11.9837C3.80453 11.9648 3.73457 11.9298 3.67268 11.8808C3.61078 11.8318 3.55818 11.7696 3.51787 11.6979C3.47756 11.6262 3.45034 11.5463 3.43777 11.4629L3.30969 10.6154L4.92033 11.8377ZM12.1631 3.16202L12.9793 3.00908C13.0542 2.99491 13.1309 2.99735 13.2049 3.01623C13.279 3.03512 13.3489 3.07009 13.4108 3.11914C13.4727 3.16819 13.5253 3.23036 13.5656 3.30209C13.6059 3.37381 13.6331 3.45369 13.6457 3.53714L13.7738 4.38429L12.1631 3.16202ZM2.68203 6.46499L2.55395 5.61751C2.54132 5.53412 2.54356 5.44878 2.56056 5.36636C2.57755 5.28394 2.60896 5.20605 2.653 5.13716C2.69703 5.06826 2.75282 5.0097 2.81718 4.96483C2.88154 4.91996 2.95321 4.88966 3.0281 4.87565L3.84426 4.72238L2.68203 6.46499ZM14.4014 8.53506L14.5295 9.38221C14.5422 9.46563 14.54 9.551 14.523 9.63346C14.506 9.71592 14.4746 9.79384 14.4306 9.86278C14.3865 9.93171 14.3307 9.99029 14.2663 10.0352C14.202 10.0801 14.1303 10.1104 14.0554 10.1244L13.2392 10.2773L14.4014 8.53506ZM8.89473 6.21416C8.81138 6.12589 8.70916 6.06281 8.59777 6.03091C8.48638 5.99902 8.36952 5.99936 8.25828 6.0319C8.14705 6.06445 8.04512 6.12812 7.96219 6.21687C7.87926 6.30562 7.81808 6.41651 7.78444 6.539C7.75081 6.6615 7.74585 6.79153 7.77003 6.91676C7.79421 7.04199 7.84673 7.15826 7.9226 7.25453C7.99847 7.35079 8.09518 7.42386 8.20353 7.4668C8.31189 7.50974 8.42831 7.52112 8.54172 7.49986C8.71822 7.46686 8.89926 7.51324 9.04508 7.62879C9.19089 7.74434 9.28957 7.91963 9.31943 8.11615C9.34265 8.27162 9.32143 8.43129 9.25877 8.5726C9.19611 8.71392 9.09518 8.82974 8.97022 8.90372C8.84527 8.97769 8.7026 9.00609 8.56238 8.98489C8.42215 8.96369 8.29145 8.89397 8.18872 8.78557L8.89473 6.21416ZM8.31766 6.01742L8.22775 5.42464L8.31766 6.01742Z" stroke="white" stroke-width="0.5" stroke-miterlimit="2" stroke-linecap="round" stroke-linejoin="round"/>
</svg>
