<svg width="20" height="17" viewBox="0 0 20 17" fill="none" xmlns="http://www.w3.org/2000/svg">
<path d="M18.8644 0H0.820104C0.602798 0.000672675 0.394579 0.0904355 0.24092 0.249684C0.087261 0.408932 0.000649065 0.624726 0 0.849936V12.7498C0 13.218 0.369084 13.5997 0.820104 13.5997H9.02188V15.2999H6.56132C6.12629 15.3 5.70911 15.4792 5.40149 15.798C5.09387 16.1168 4.921 16.5491 4.92087 17H14.7631C14.763 16.5491 14.5901 16.1168 14.2825 15.798C13.9749 15.4792 13.5577 15.3 13.1226 15.2999H10.6621V13.5997H18.8641C19.0814 13.5991 19.2897 13.5094 19.4434 13.3501C19.597 13.1909 19.6836 12.975 19.6842 12.7498V0.849936C19.6836 0.624749 19.5971 0.408955 19.4434 0.249699C19.2898 0.0904438 19.0816 0.000672997 18.8644 0ZM18.044 11.8999H1.64045V1.69987H18.0442V11.8999H18.044Z" fill="#252733"/>
<path d="M8.05273 4.47461V8.94785L11.6319 6.71136L8.05273 4.47461Z" fill="#252733"/>
</svg>
