<svg width="23" height="18" viewBox="0 0 23 18" fill="none" xmlns="http://www.w3.org/2000/svg">
<path d="M11.1474 11.5039C10.6037 11.5039 10.0722 11.6651 9.62016 11.9672C9.16809 12.2693 8.81575 12.6986 8.60769 13.2009C8.39963 13.7032 8.34519 14.2559 8.45126 14.7892C8.55733 15.3224 8.81914 15.8122 9.20359 16.1967C9.58804 16.5811 10.0779 16.8429 10.6111 16.949C11.1444 17.0551 11.6971 17.0006 12.1994 16.7926C12.7017 16.5845 13.131 16.2322 13.4331 15.7801C13.7351 15.328 13.8964 14.7966 13.8964 14.2529C13.8964 13.5238 13.6067 12.8246 13.0912 12.3091C12.5757 11.7935 11.8765 11.5039 11.1474 11.5039ZM11.1474 15.431C10.9144 15.431 10.6866 15.3619 10.4929 15.2324C10.2991 15.103 10.1481 14.919 10.059 14.7037C9.96978 14.4884 9.94645 14.2516 9.99191 14.023C10.0374 13.7945 10.1496 13.5846 10.3143 13.4198C10.4791 13.255 10.689 13.1428 10.9176 13.0974C11.1461 13.0519 11.383 13.0753 11.5982 13.1644C11.8135 13.2536 11.9975 13.4046 12.127 13.5983C12.2564 13.7921 12.3255 14.0199 12.3255 14.2529C12.3255 14.5653 12.2014 14.865 11.9805 15.0859C11.7595 15.3069 11.4599 15.431 11.1474 15.431Z" fill="#252733"/>
<path d="M11.1477 7.57422C9.89997 7.58208 8.67497 7.90876 7.58901 8.52322C6.50305 9.13768 5.59218 10.0195 4.94289 11.085C4.88805 11.1727 4.85105 11.2702 4.834 11.3722C4.81695 11.4741 4.82019 11.5785 4.84354 11.6792C4.86689 11.7798 4.90989 11.8749 4.97007 11.959C5.03025 12.043 5.10642 12.1144 5.19423 12.1689C5.28185 12.2238 5.37943 12.2608 5.48138 12.2778C5.58333 12.2949 5.68765 12.2916 5.78834 12.2683C5.88904 12.2449 5.98414 12.2019 6.06818 12.1417C6.15222 12.0816 6.22356 12.0054 6.2781 11.9176C6.78212 11.0748 7.49608 10.3771 8.35026 9.89271C9.20443 9.40828 10.1696 9.15363 11.1516 9.15363C12.1336 9.15363 13.0988 9.40828 13.953 9.89271C14.8072 10.3771 15.5211 11.0748 16.0251 11.9176C16.1366 12.0936 16.3134 12.2181 16.5167 12.2638C16.7199 12.3095 16.933 12.2725 17.109 12.1611C17.285 12.0496 17.4096 11.8728 17.4552 11.6695C17.5009 11.4663 17.4639 11.2532 17.3525 11.0772C16.7023 10.0131 15.791 9.13284 14.7051 8.51979C13.6192 7.90674 12.3947 7.58126 11.1477 7.57422Z" fill="#252733"/>
<path d="M11.1466 3.78906C9.5158 3.794 7.90652 4.16162 6.43534 4.86528C4.96416 5.56895 3.66792 6.59105 2.64052 7.85753C2.57439 7.93689 2.52456 8.02852 2.4939 8.12717C2.46323 8.22583 2.45233 8.32956 2.46181 8.43243C2.4713 8.5353 2.50098 8.63529 2.54917 8.72667C2.59736 8.81805 2.6631 8.89903 2.74263 8.96496C2.88394 9.08206 3.06178 9.14597 3.2453 9.14561C3.36068 9.1458 3.47469 9.12056 3.57922 9.07169C3.68375 9.02282 3.77622 8.95152 3.85007 8.86286C4.72833 7.77425 5.83916 6.89608 7.10107 6.29277C8.36299 5.68946 9.74396 5.37632 11.1427 5.37632C12.5414 5.37632 13.9224 5.68946 15.1843 6.29277C16.4462 6.89608 17.557 7.77425 18.4353 8.86286C18.4984 8.95039 18.5788 9.02397 18.6716 9.07902C18.7644 9.13408 18.8676 9.16942 18.9747 9.18284C19.0817 9.19627 19.1904 9.18749 19.2939 9.15705C19.3974 9.12661 19.4936 9.07517 19.5763 9.00593C19.6591 8.9367 19.7267 8.85115 19.775 8.75463C19.8232 8.65811 19.851 8.55268 19.8567 8.44493C19.8624 8.33718 19.8458 8.22941 19.808 8.12834C19.7702 8.02728 19.712 7.93509 19.637 7.85753C18.6094 6.59518 17.3153 5.57578 15.8474 4.8724C14.3796 4.16902 12.7743 3.79907 11.1466 3.78906Z" fill="#252733"/>
<path d="M21.9232 4.6533C20.5384 3.18394 18.8678 2.0132 17.014 1.21299C15.1602 0.412782 13.1624 0 11.1433 0C9.12422 0 7.12643 0.412782 5.27267 1.21299C3.4189 2.0132 1.7483 3.18394 0.363467 4.6533C0.248811 4.7636 0.170354 4.90612 0.138481 5.06199C0.106609 5.21786 0.122824 5.37974 0.184981 5.52619C0.247138 5.67264 0.352306 5.79676 0.486562 5.88212C0.620819 5.96749 0.777833 6.01007 0.936822 6.00422C1.04262 6.00382 1.14725 5.98204 1.24442 5.9402C1.3416 5.89837 1.42932 5.83732 1.50232 5.76074C2.7398 4.44482 4.23357 3.39616 5.89163 2.67935C7.54969 1.96253 9.33695 1.59274 11.1433 1.59274C12.9497 1.59274 14.737 1.96253 16.395 2.67935C18.0531 3.39616 19.5469 4.44482 20.7843 5.76074C20.9315 5.90703 21.1306 5.98914 21.338 5.98914C21.5455 5.98914 21.7446 5.90703 21.8918 5.76074C22.0423 5.61778 22.1301 5.42103 22.136 5.21351C22.1419 5.00598 22.0654 4.80457 21.9232 4.6533Z" fill="#252733"/>
</svg>
