<svg width="636" height="698" viewBox="0 0 636 698" fill="none" xmlns="http://www.w3.org/2000/svg">
<path d="M568.615 937.7L635.222 824.484L392.589 382.983C392.589 382.983 445.03 317.62 513.79 215.905C554.664 152.034 573.12 78.9491 566.317 7.83408C566.099 5.55451 564.795 3.5184 562.787 2.25941V2.25941C560.445 0.790789 557.507 0.368943 554.761 1.1508C481.967 21.8788 416.299 64.8959 368.207 123.442L367.579 124.232C291.937 221.576 246.378 291.31 246.378 291.31L-284.795 247.64L-372.74 347.477L-52.8623 431.071L96.047 491.613C23.6459 581.828 -34.7254 681.121 -76.9909 785.962L-73.8022 778.825L-208.169 756.332L-258.73 826.032L-102.589 878.814C-105.478 894.598 -107.116 907.896 -108.111 921.146L-107.924 919.289L-115.854 930.221C-113.345 929.2 -110.8 927.976 -108.301 926.892C-108.38 929.437 -108.685 932.065 -108.754 934.673L-100.824 923.741C-89.7929 918.814 -77.1448 912.419 -64.7655 905.405L-62.4582 903.976L48.6889 1018.78L99.2504 949.082L26.4688 841.694C92.7811 785.536 158.803 714.702 216.479 635.194C228.43 618.719 239.88 602.098 250.789 585.308L249.272 587.628L365.487 693.317L568.681 937.685L568.615 937.7Z" fill="url(#paint0_linear_916_897)"/>
<defs>
<linearGradient id="paint0_linear_916_897" x1="91.874" y1="-293" x2="793.704" y2="995.385" gradientUnits="userSpaceOnUse">
<stop stop-color="#5D7F9E"/>
<stop offset="1" stop-color="#003566"/>
</linearGradient>
</defs>
</svg>
