<svg width="1072" height="1589" viewBox="0 0 1072 1589" fill="none" xmlns="http://www.w3.org/2000/svg">
<path d="M988.837 1453.24L1071.38 1276.52L639.563 596.221C639.563 596.221 708.2 493.951 795.735 335.029C847.131 235.502 863.72 122.194 842.813 12.2817C842.048 8.25937 839.569 4.77546 836.055 2.67425C832.541 0.573347 828.3 0.0379494 824.395 1.26724C718.295 34.667 626.318 102.545 563.125 194.219L562.303 195.455C463.772 347.721 406.131 456.647 406.131 456.647L-397.465 398.271L-514.072 554.619L-21.3381 678.614L211.36 769.87C116.596 911.024 44.2737 1066.01 -3.03386 1229.31L0.65403 1218.19L-204.383 1185.68L-269.533 1294.64L-27.1777 1373.73C-29.0875 1398.26 -29.5019 1418.91 -28.9597 1439.47L-28.9643 1436.59L-39.1826 1453.68C-35.5761 1452.05 -31.9459 1450.11 -28.3637 1448.38C-28.0908 1452.33 -28.1447 1456.41 -27.8474 1460.45L-17.6291 1443.36C-1.83668 1435.53 16.1562 1425.39 33.6511 1414.3L36.8931 1412.04L221.273 1588.1L286.423 1479.14L160.74 1313.91C251.601 1225.67 339.771 1114.68 414.089 990.382C429.489 964.626 444.113 938.654 457.901 912.428L455.982 916.052L646.563 1077.88L988.934 1453.22L988.837 1453.24Z" fill="url(#paint0_linear_917_753)"/>
<defs>
<linearGradient id="paint0_linear_917_753" x1="84.6006" y1="-446.636" x2="917.065" y2="1204.54" gradientUnits="userSpaceOnUse">
<stop stop-color="#5D7F9E"/>
<stop offset="1" stop-color="#003566"/>
</linearGradient>
</defs>
</svg>
