<svg width="168" height="21" viewBox="0 0 168 21" fill="none" xmlns="http://www.w3.org/2000/svg">
<line x1="7" y1="10.5" x2="159" y2="10.5" stroke="#C7C7C7"/>
<path d="M27.0795 21H29.0693L35.7 12.6H39.9C40.457 12.6 40.9911 12.3787 41.3849 11.9849C41.7788 11.5911 42 11.057 42 10.5C42 9.94304 41.7788 9.4089 41.3849 9.01508C40.9911 8.62125 40.457 8.4 39.9 8.4H35.5898L28.959 0H27.0806L30.0311 8.4H25.2L23.1 5.25H21L23.1 10.5L21 15.75H23.1L25.2 12.6H30.1193L27.0795 21Z" fill="#003566"/>
<circle cx="5.5" cy="10.5" r="5.5" fill="#C7C7C7"/>
<circle cx="162.5" cy="10.5" r="5.5" fill="#C7C7C7"/>
<rect x="93" y="8" width="15" height="4.5" rx="2.25" fill="#DC143C"/>
</svg>
